<svg xmlns="http://www.w3.org/2000/svg" viewBox="0 0 100 100" fill="white" version="1.2" baseProfile="tiny-ps" preserveAspectRatio="xMidYMid meet" xml:space="preserve">
<title>Unravel</title>
<path d="M0.0806777 0H2.82372L2.9044 0.133869V28.6479L2.98507 46.988V53.1459L2.9044 72.0214V99.8661L2.42033 100H0.0806777L0 96.3855V70.0134L0.0806777 53.9491V42.1687L0 28.2463V4.2838L0.0806777 0Z" fill="black"/>
<path d="M8.28838 0L10.5342 0.13369L10.7666 0.40107V8.02139L10.9989 14.7059L11.541 24.4652L11.9282 31.1497L12.1605 37.0321L12.3154 44.2513V55.8824L12.1605 63.1016L11.8508 70.4545L11.0763 83.8235L10.844 89.4385L10.7666 92.1123V99.7326L10.6891 99.8663L9.7598 100H8.28838L8.21094 98.9305V91.8449L8.36582 86.7647L8.75304 79.1444L9.37258 68.4492L9.60491 62.5668L9.7598 54.9465V45.1872L9.60491 37.5668L9.29514 29.9465L8.52071 16.7112L8.28838 11.0963L8.21094 7.8877V0.802139L8.28838 0Z" fill="black"/>
<path d="M16.0469 0H18.3832L18.4638 0.133869L18.5443 4.14993L18.786 8.43374L19.1888 12.7175L19.7528 17.1352L20.4778 22.2222L21.5252 29.1834L22.1697 34.0027L22.7336 39.4913L23.0559 43.909L23.1364 45.6493V54.3507L22.8947 58.5007L22.4919 63.0522L21.928 67.8715L20.9612 74.5649L19.7528 82.7309L19.1083 88.0857L18.7055 92.6372L18.5443 95.7162L18.4638 99.8661L17.6581 100H16.0469V96.6533L16.208 92.7711L16.5303 88.755L17.0942 83.668L17.8998 77.9116L19.1888 69.344L19.9139 63.7216L20.3973 58.6345L20.639 54.7523L20.7195 52.4766V47.3896L20.4778 42.4364L20.075 37.751L19.5111 32.9317L18.786 27.7108L17.497 19.1432L16.7719 13.5208L16.3691 9.37082L16.1274 5.48862L16.0469 3.07898V0Z" fill="black"/>
<path d="M23.8828 0H26.0795L26.405 4.81928L26.8118 8.166L27.544 12.3159L28.439 16.4659L29.8221 21.9545L31.1239 26.9076L32.4256 32.1285L33.4019 36.6801L34.0528 40.6961L34.4596 43.909L34.7037 46.988V52.7443L34.4596 56.091L33.9715 59.9732L33.1579 64.5248L32.3443 68.1392L31.0425 73.3601L29.2526 80.1874L28.0322 85.2744L27.0559 90.2276L26.5677 93.5743L26.2423 97.1888L26.0795 100H24.0455L23.8828 99.8661V97.8581L24.1269 94.5114L24.6151 90.6292L25.3473 86.4793L26.1609 82.7309L27.2186 78.4471L28.2763 74.4311L29.6594 69.0763L30.7984 64.1232L31.5307 60.3748L32.0188 56.8942L32.3443 53.8153L32.4256 52.3427V47.6573L32.1815 44.3106L31.6934 40.5623L31.0425 36.9478L30.1475 32.7979L28.9271 27.9786L27.544 22.7577L26.1609 17.1352L25.2659 12.9853L24.5337 8.70147L24.1269 5.22088L23.8828 1.60643V0Z" fill="black"/>
<path d="M33.6702 0L34.0663 0.13369L34.4623 4.14438L35.0168 7.48663L35.5713 10.1604L36.5219 13.6364L37.7101 17.5134L38.819 20.7219L40.0072 24.0642L41.2746 27.6738L42.3836 30.8824L43.1757 33.2888L44.1263 36.3636L44.9976 39.7059L45.7898 43.7166L46.1858 47.1925L46.265 48.5294V51.6043L46.0274 54.5455L45.6313 57.2192L44.9976 60.4278L43.9679 64.3048L43.0965 67.1123L42.0668 70.1872L40.7201 73.9305L39.5319 77.4064L38.8982 79.1444L37.9477 81.9519L37.1556 84.3583L36.5219 86.3636L35.5713 89.9733L35.0168 92.5134L34.4623 95.8556L34.0663 100H32.8781L32.1652 99.8663V98.262L32.482 95.0535L33.0365 91.7112L33.6702 88.7701L34.7 84.893L35.8089 81.2834L36.9179 78.0749L38.2645 74.1979L39.6112 70.4545L40.7201 67.246L41.7499 64.0374L42.6212 61.0963L43.3342 58.0214L43.7302 55.8824L44.0471 53.6096L44.2055 51.6043V48.5294L43.9679 45.7219L43.5718 43.1818L42.9381 40.2406L42.0668 37.0321L41.037 33.6898L39.928 30.4813L38.423 26.2032L37.0763 22.4599L36.0466 19.385L35.4921 17.7807L34.8584 15.6417L33.987 12.5668L33.1949 9.09091L32.6404 6.01604L32.2444 2.6738L32.0859 0.26738L32.1652 0.13369L33.6702 0Z" fill="black"/>
<path d="M41.3724 0L41.6947 0.133511L41.8559 1.33511L42.1782 4.00534L42.5811 6.14152L43.2258 8.81175L44.1122 11.749L45.0792 14.4192L46.2073 17.223L47.1743 19.4927L48.1413 21.6288L49.2695 24.1656L50.4782 26.8358L51.6064 29.3725L52.654 31.7757L53.7822 34.5794L54.6686 36.9826L55.4744 39.3858L56.1996 42.1896L56.6831 44.5928L57.0055 46.996L57.0861 48.0641V51.8024L56.9249 53.6716L56.522 56.2083L55.8773 59.012L55.0715 61.8158L54.0239 64.753L53.0569 67.1562L52.0899 69.4259L51.0423 71.8291L50.0753 73.9653L48.9472 76.502L47.6578 79.3057L46.852 81.1749L45.885 83.4446L45.0792 85.5808L44.4345 87.3164L43.6287 89.7196L42.984 91.9893L42.3394 94.9266L42.017 97.0628L41.6947 99.8665L41.453 100L40.0025 99.733L39.9219 99.5995L40.0025 97.9973L40.4054 94.7931L40.9695 91.9893L41.8559 88.6515L42.9034 85.4473L44.1122 82.3765L44.918 80.3738L45.9656 77.9706L47.0938 75.4339L48.3831 72.6302L49.5113 70.0935L51.6064 65.287L52.4122 63.1509L53.1375 61.1482L54.0239 58.3445L54.7491 55.2737L55.0715 53.004L55.2326 51.4019V48.5981L55.0715 46.729L54.588 43.9252L54.1045 41.9226L53.4598 39.6529L52.4122 36.7156L51.4452 34.3124L50.4782 32.0427L49.4307 29.6395L48.6248 27.9039L47.4967 25.3672L46.2879 22.6969L45.4821 20.8278L44.4345 18.4246L43.7093 16.5554L42.8229 14.1522L42.017 11.749L41.2112 8.94526L40.6471 6.40854L40.1636 3.33778L39.9219 0.934579V0.267023L40.1636 0.133511L41.3724 0Z" fill="black"/>
<path d="M49.1151 0L49.3546 0.13369L49.4345 0.40107L49.674 3.20856L50.153 6.01604L50.8716 8.82353L51.5902 11.0963L52.5483 13.6364L53.5862 16.0428L54.3846 17.7807L55.4225 19.9198L57.179 23.3957L57.8976 24.8663L58.7759 26.6043L59.4944 28.0749L60.6122 30.3476L61.4106 32.0856L62.3687 34.2246L63.3268 36.631L64.0454 38.6364L64.9236 41.4438L65.5623 44.385L65.8817 46.5241L66.0414 48.5294V51.6043L65.8019 54.1444L65.3228 56.8182L64.7639 59.0909L63.8058 62.1658L62.9276 64.4385L61.9695 66.7112L60.8517 69.1176L59.8138 71.2567L59.0952 72.7273L58.217 74.4652L57.4984 75.9358L56.4605 77.9412L55.5822 79.6791L54.704 81.5508L53.5862 83.9572L52.6281 86.2299L51.67 88.7701L50.8716 91.1765L50.2329 93.7166L49.8337 95.7219L49.5143 98.3957L49.4345 99.7326L49.3546 100H48.3965L47.8377 99.8663L47.7578 99.5989L47.9973 96.7914L48.3167 94.5187L48.8756 91.8449L49.7538 88.7701L50.7918 85.8289L51.9095 83.1551L52.8676 81.016L53.9056 78.877L55.0233 76.6043L55.9814 74.7326L56.7 73.262L57.5783 71.5241L58.696 69.2513L59.3348 67.9144L60.213 66.0428L61.3308 63.5027L62.2889 60.9626L63.247 58.0214L63.8857 55.3476L64.2849 52.5401L64.3647 51.738V48.3957L64.1252 46.123L63.726 43.984L63.0074 41.1765L62.2889 39.0374L61.0114 35.8289L60.2928 34.2246L59.4944 32.4866L58.0573 29.5455L56.9395 27.2727L55.9814 25.4011L55.2629 23.9305L54.3048 22.0588L53.666 20.7219L52.7878 18.8503L51.5902 16.1765L50.6321 13.7701L49.7538 11.2299L48.8756 8.15508L48.3167 5.48128L47.9175 2.6738L47.7578 0.26738L47.8377 0.13369L49.1151 0Z" fill="black"/>
<path d="M57.0812 0L57.3991 0.13369L57.6375 2.80749L58.1937 6.14973L58.9089 8.95722L59.8625 12.0321L60.816 14.5722L61.6901 16.7112L62.7232 19.1176L63.5973 20.9893L64.1535 22.1925L65.0276 24.0642L65.8223 25.8021L66.6964 27.6738L67.9678 30.4813L69.0803 33.0214L70.1928 35.8289L71.3053 38.9037L72.0204 41.4438L72.6561 44.2513L73.0535 47.0588L73.1329 48.1283V52.139L72.8151 54.8128L72.2588 57.6203L71.5437 60.2941L70.6696 62.9679L69.716 65.508L68.9213 67.3797L67.8089 69.9198L66.9348 71.7914L65.9017 74.0642L64.9482 76.0695L64.1535 77.8075L63.041 80.2139L61.9285 82.754L60.816 85.4278L59.6241 88.7701L58.8294 91.3102L58.1143 94.385L57.717 96.6578L57.3991 99.8663L57.3196 100H56.6045L56.0482 99.8663L55.9688 99.1979L56.2866 96.123L56.7634 93.4492L57.3196 91.0428L58.0348 88.5027L59.3062 84.893L60.1009 82.8877L61.1339 80.4813L62.4053 77.6738L63.4383 75.4011L64.4714 73.262L65.1866 71.6578L66.299 69.2513L67.2526 67.1123L68.2856 64.7059L69.1597 62.4332L70.1133 59.6257L70.8285 57.0856L71.3847 54.2781L71.6231 52.4064L71.7026 51.4706V48.6631L71.4642 46.2567L71.0669 43.984L70.2722 40.9091L69.6365 38.9037L68.683 36.3636L67.9678 34.6257L66.8553 32.0856L66.1401 30.4813L65.0276 28.0749L64.233 26.3369L63.2794 24.3316L62.2464 22.0588L61.4518 20.3209L60.6571 18.4492L59.7035 16.1765L58.75 13.6364L57.7964 10.6952L57.2402 8.68984L56.7634 6.68449L56.2866 3.87701L55.9688 0.668449L56.0482 0.13369L57.0812 0Z" fill="black"/>
<path d="M64.7695 0L65.0107 0.13369L65.3323 3.60963L65.8147 6.68449L66.4579 9.49198L67.1815 12.1658L68.2266 15.508L69.5934 19.2513L70.5582 21.7914L71.121 23.262L72.8898 27.8075L73.8546 30.3476L75.141 33.8235L76.1862 37.0321L76.9901 39.8396L77.7137 43.0481L78.1961 46.2567L78.3569 48.262V51.738L78.1157 54.4118L77.6333 57.3529L76.9901 60.1604L75.8646 64.0374L74.9802 66.7112L73.7742 69.9198L72.8898 72.1925L71.6034 75.5348L70.8798 77.4064L69.7542 80.3476L68.3874 84.0909L67.2618 87.5668L66.4579 90.508L65.7343 93.8503L65.2519 97.1925L65.0107 100H64.3675L63.8047 99.8663V98.6631L64.1263 95.5882L64.6087 92.7807L65.1715 90.1069L66.0559 86.8984L67.1011 83.5561L68.3874 79.9465L69.6738 76.6043L70.719 73.9305L72.9702 68.0481L73.935 65.3743L74.9802 62.2995L75.7842 59.492L76.5077 56.2834L76.9097 53.6096L77.0705 51.738V48.5294L76.8293 45.8556L76.2665 42.5134L75.543 39.7059L74.8998 37.4332L73.8546 34.3583L72.729 31.2834L71.6838 28.6096L70.5582 25.6684L69.513 22.9947L68.3874 20.0535L67.4226 17.3797L66.3775 14.1711L65.7343 12.0321L64.9303 8.82353L64.4479 6.41711L63.9655 3.07487L63.8047 1.3369V0.13369L64.7695 0Z" fill="black"/>
<path d="M71.7214 0H72.6097L72.6904 0.133869L72.9327 3.8822L73.3364 7.09505L73.9017 10.4418L74.7092 14.1901L75.5975 17.6707L76.7281 21.8206L77.3741 23.9625L78.4239 27.577L79.6352 31.9946L80.4427 35.0736L81.0887 37.8849L81.8155 41.7671L82.2193 44.8461L82.3808 46.8541L82.4615 48.5944V51.2718L82.3 54.083L81.8962 57.4297L81.331 60.7764L80.6042 64.1232L79.6352 67.8715L79.0699 70.0134L78.5046 72.0214L76.8896 77.51L75.6783 81.9277L74.9515 84.739L74.144 88.2195L73.4979 91.7001L73.0942 94.5114L72.8519 97.0549L72.6904 99.8661L72.2866 100L71.7214 99.8661L71.6406 99.7323L71.8021 96.3855L72.2059 92.7711L72.8519 88.8889L73.5787 85.5422L74.6285 81.3922L75.1938 79.2503L75.8398 77.1084L76.8896 73.3601L77.6163 70.8166L78.1816 68.9424L79.2314 64.9264L80.1197 61.0442L80.7657 57.5636L81.1695 54.3507L81.331 52.075V47.5234L81.008 44.0428L80.5234 40.83L79.8774 37.6171L78.9891 34.0027L78.3431 31.593L77.2933 27.8447L76.6473 25.5689L76.0013 23.427L75.2745 20.7497L74.7092 18.7416L73.821 15.3949L73.0134 11.7805L72.2866 7.63052L71.8829 4.55154L71.6406 1.20482V0.133869L71.7214 0Z" fill="black"/>
<path d="M79.8516 0H80.5478L80.6251 0.133869L80.7798 5.08701L81.0893 9.23695L81.6308 13.7885L82.327 18.4739L83.41 24.8996L84.3383 30.3882L85.1118 35.4752L85.576 39.0897L85.9628 43.1058L86.1948 46.988V52.7443L86.0401 55.6894L85.7307 59.4378L85.1892 63.8554L84.5703 68.1392L83.6421 73.6278L82.4817 80.4552L81.6308 86.0776L81.0893 90.7631L80.7798 94.913L80.6251 99.8661L80.5478 100H79.9289L79.8516 99.8661V96.3855L80.0836 92.3695L80.4704 88.3534L81.1666 83.2664L82.0949 77.3762L83.0232 72.0214L83.7968 67.336L84.493 62.5167L84.9571 58.5007L85.2666 54.3507L85.3439 52.7443V46.988L85.1118 43.1058L84.7251 39.2236L84.0288 34.0027L83.2553 29.1834L81.9402 21.5529L81.3213 17.8046L80.5478 12.1821L80.0836 7.63052L79.8516 3.61446V0Z" fill="black"/>
<path d="M87.7661 0H88.2374L88.3159 0.133869V4.95315L88.473 10.0402L88.7087 14.4578L89.3371 22.6238L90.0441 31.1914L90.3584 36.2784L90.594 41.9009L90.6726 45.1138V54.7523L90.5155 60.1071L90.2012 66.5328L89.6514 73.7617L88.8658 83.2664L88.5516 88.2195L88.3945 91.834L88.3159 94.913V99.8661L88.2374 100L87.6875 99.8661V92.7711L87.9232 87.2825L88.3159 81.5261L89.0229 72.9585L89.5728 65.4618L89.887 58.9023L89.9656 56.6265L90.0441 52.2088V47.2557L89.887 40.83L89.5728 34.4043L89.18 28.7818L88.2374 17.4029L87.8446 10.9772L87.6875 6.96118V0.133869L87.7661 0Z" fill="black"/>
<path d="M95.5981 0L95.9712 0.133869V12.7175L96.2697 31.0576V68.8086L95.9712 87.4163V99.8661L95.6727 100L95.5981 99.8661L95.5234 98.6613V85.8099L95.7473 72.1553L95.8219 65.9973V33.3333L95.5981 18.7416L95.5234 14.5917V1.20482L95.5981 0Z" fill="black"/>
<path d="M99.7074 0L100.006 0.13355V99.6283H99.7074L99.6328 92.5501V0.2671L99.7074 0Z" fill="black"/>
</svg>